<svg xmlns="http://www.w3.org/2000/svg" viewBox="0 0 379.17 541"><defs><style>.cls-1,.cls-2{fill:none;stroke:#fff;stroke-linecap:round;stroke-width:7px;}.cls-1{stroke-miterlimit:10;}.cls-2{stroke-linejoin:round;}</style></defs><g id="Layer_2" data-name="Layer 2"><g id="Layer_1-2" data-name="Layer 1"><circle class="cls-1" cx="189.58" cy="94.83" r="91.33"/><path class="cls-1" d="M251.3,214.38,267.87,231a12,12,0,0,0,17,0l83.91-83.9a23.8,23.8,0,0,0,0-33.55h0a23.79,23.79,0,0,0-33.55,0l-83.9,83.91A12,12,0,0,0,251.3,214.38Z"/><path class="cls-1" d="M135.31,354.83h31.94a13.34,13.34,0,0,1,13.34,13.34v143a26.37,26.37,0,0,1-26.37,26.37h-5.88A26.37,26.37,0,0,1,122,511.13v-143A13.34,13.34,0,0,1,135.31,354.83Z"/><path class="cls-1" d="M211.92,354.83h31.94a13.34,13.34,0,0,1,13.34,13.34v143a26.37,26.37,0,0,1-26.37,26.37H225a26.37,26.37,0,0,1-26.37-26.37v-143a13.34,13.34,0,0,1,13.34-13.34Z"/><path class="cls-1" d="M111.3,230.52l16.57-16.58a12,12,0,0,0,0-17L44,113.07a23.79,23.79,0,0,0-33.55,0h0a23.77,23.77,0,0,0,0,33.54l83.9,83.91A12,12,0,0,0,111.3,230.52Z"/><polyline class="cls-1" points="102.64 484.5 54.64 484.5 100.64 260.5"/><line class="cls-1" x1="54.64" y1="484.5" x2="102.64" y2="484.5"/><polyline class="cls-1" points="282.64 260.5 328.64 484.5 280.64 484.5"/><line class="cls-1" x1="328.64" y1="484.5" x2="280.64" y2="484.5"/><circle class="cls-1" cx="219.56" cy="228.02" r="20.98"/><polyline class="cls-2" points="209.79 260.92 209.79 298.26 220.87 287.18 229.33 295.64 229.33 259.77"/><line class="cls-1" x1="121.97" y1="347.34" x2="121.97" y2="241.51"/><line class="cls-1" x1="257.2" y1="347.56" x2="257.2" y2="241.73"/></g></g></svg>