<svg xmlns="http://www.w3.org/2000/svg" viewBox="0 0 49.58 46"><defs><style>.cls-1{fill:#11ad8e;}</style></defs><g id="Layer_2" data-name="Layer 2"><g id="Layer_1-2" data-name="Layer 1"><path class="cls-1" d="M41,18.26c0,1.45,0,3,0,4.74,0,8.94,0,14.34-1.83,16.17S31.94,41,23,41,8.66,41,6.83,39.17,5,31.94,5,23,5,8.66,6.83,6.83,14.06,5,23,5,37.34,5,39.17,6.83A3.87,3.87,0,0,1,40,8.17l3.69-3.69C41,.34,35.27,0,23,0,1.07,0,0,1.07,0,23S1.07,46,23,46s23-1.07,23-23c0-3.77,0-6.92-.2-9.56Z"/><polygon class="cls-1" points="23.37 33.87 10.78 21.29 14.31 17.75 23.37 26.8 46.05 4.12 49.58 7.66 23.37 33.87"/></g></g></svg>