<svg xmlns="http://www.w3.org/2000/svg" viewBox="0 0 203.51 130.79"><defs><style>.cls-1,.cls-2{fill:none;stroke:#fff;stroke-linecap:round;stroke-width:7px;}.cls-1{stroke-miterlimit:10;}.cls-2{stroke-linejoin:round;}</style></defs><g id="Layer_2" data-name="Layer 2"><g id="Layer_1-2" data-name="Layer 1"><line class="cls-1" x1="86.76" y1="112.2" x2="84.73" y2="114.23"/><path class="cls-1" d="M30.7-2.78H44.2a0,0,0,0,1,0,0v72a0,0,0,0,1,0,0H30.7a8.5,8.5,0,0,1-8.5-8.5v-55A8.5,8.5,0,0,1,30.7-2.78Z" transform="translate(33.2 -13.75) rotate(45)"/><path class="cls-2" d="M101.76,25.87,91,15.08c-12.83-12.83-24.55.45-24.55.45L53.7,28.26,41,41,28.26,53.7,15.53,66.42l53.9,53.9a8.84,8.84,0,0,0,12.5,0l.22-.22a8.82,8.82,0,0,0,0-12.5l17.11,17.1a8.82,8.82,0,0,0,12.5,0l.22-.22a8.84,8.84,0,0,0,0-12.5l8.82,8.82a8.84,8.84,0,0,0,12.5,0l.22-.22a8.84,8.84,0,0,0,0-12.5l-8.82-8.82a8.84,8.84,0,0,0,12.5,0l.23-.22a8.84,8.84,0,0,0,0-12.5L111.66,60.77"/><line class="cls-2" x1="124.7" y1="99.26" x2="97.99" y2="72.54"/><line class="cls-2" x1="111.98" y1="111.98" x2="85.82" y2="85.82"/><line class="cls-2" x1="82.15" y1="107.6" x2="62.73" y2="88.18"/><line class="cls-2" x1="111.66" y1="60.77" x2="101.76" y2="50.87"/><path class="cls-1" d="M167.82-2.78h13.5a0,0,0,0,1,0,0v72a0,0,0,0,1,0,0h-13.5a8.5,8.5,0,0,1-8.5-8.5v-55a8.5,8.5,0,0,1,8.5-8.5Z" transform="translate(314.22 -63.75) rotate(135)"/><path class="cls-2" d="M91.86,60.77a8.84,8.84,0,0,1-12.5-12.5l33.19-33.19c12.83-12.83,24.54.45,24.54.45l12.72,12.73L162.54,41,175.26,53.7,188,66.42l-53.9,53.9"/><line class="cls-2" x1="91.86" y1="60.77" x2="103.94" y2="48.68"/></g></g></svg>